<?xml version="1.0" encoding="UTF-8"?>
<svg width="400" height="560" xmlns="http://www.w3.org/2000/svg"><defs><pattern id="dots0" width="12" height="12" patternUnits="userSpaceOnUse"><circle cx="6" cy="6" r="1" fill="#c89a5a" opacity="0.15"/></pattern></defs><rect width="400" height="560" fill="#fdf6e3"/><rect width="400" height="560" fill="url(#dots0)"/><rect x="8" y="8" width="384" height="544" rx="4" fill="none" stroke="#c89a5a" stroke-width="2" opacity="0.4"/><rect y="0" width="400" height="48" fill="#c89a5a"/><text x="200" y="22" font-family="Georgia,serif" font-size="14" font-weight="bold" fill="white" text-anchor="middle">MOTO STORE — EST. 1965</text><text x="200" y="38" font-family="Georgia,serif" font-size="8" fill="rgba(255,255,255,0.7)" text-anchor="middle">Vintage &amp; Classic Motorcycles</text><rect y="48" width="400" height="26" fill="#f8f1de"/><text x="18" y="65" font-family="Georgia,serif" font-size="8" fill="#8d6e63">Accueil</text><text x="94" y="65" font-family="Georgia,serif" font-size="8" fill="#8d6e63">Collection</text><text x="170" y="65" font-family="Georgia,serif" font-size="8" fill="#8d6e63">Restauration</text><text x="246" y="65" font-family="Georgia,serif" font-size="8" fill="#8d6e63">Histoire</text><text x="322" y="65" font-family="Georgia,serif" font-size="8" fill="#8d6e63">Contact</text><rect y="74" width="400" height="170" fill="#f5eedb"/><text x="200" y="110" font-family="Georgia,serif" font-size="8" fill="#c89a5a" text-anchor="middle" letter-spacing="8">COLLECTION CLASSIQUE</text><line x1="60" y1="117" x2="340" y2="117" stroke="#c89a5a" stroke-width="0.8" opacity="0.5"/><text x="200" y="148" font-family="Georgia,serif" font-size="26" font-style="italic" fill="#3e2723" text-anchor="middle">Âme Mécanique</text><line x1="60" y1="158" x2="340" y2="158" stroke="#c89a5a" stroke-width="0.8" opacity="0.5"/><text x="200" y="178" font-family="Georgia,serif" font-size="9" fill="#8d6e63" text-anchor="middle">Motos de collection · Restauration expert · Pièces d'origine</text><rect x="155" y="190" width="90" height="24" rx="2" fill="#c89a5a"/><text x="200" y="206" font-family="Georgia,serif" font-size="9" font-style="italic" fill="white" text-anchor="middle">Découvrir →</text><g transform="translate(310, 246) scale(1.05)"><ellipse cx="0" cy="54" rx="120" ry="7" fill="rgba(0,0,0,0.2)"/><circle cx="-76" cy="36" r="34" fill="#1a1206" stroke="#3a2a12" stroke-width="2.5"/><circle cx="-76" cy="36" r="24" fill="none" stroke="#4a3a1a" stroke-width="2"/><circle cx="-76" cy="36" r="8" fill="#8a7a5a"/><line x1="-76" y1="2" x2="-76" y2="70" stroke="#5a4a2a" stroke-width="2"/><line x1="-42" y1="36" x2="-110" y2="36" stroke="#5a4a2a" stroke-width="2"/><line x1="-52" y1="12" x2="-100" y2="60" stroke="#5a4a2a" stroke-width="2"/><line x1="-100" y1="12" x2="-52" y2="60" stroke="#5a4a2a" stroke-width="2"/><circle cx="72" cy="36" r="32" fill="#1a1206" stroke="#3a2a12" stroke-width="2.5"/><circle cx="72" cy="36" r="22" fill="none" stroke="#4a3a1a" stroke-width="2"/><circle cx="72" cy="36" r="8" fill="#8a7a5a"/><line x1="72" y1="4" x2="72" y2="68" stroke="#5a4a2a" stroke-width="2"/><line x1="40" y1="36" x2="104" y2="36" stroke="#5a4a2a" stroke-width="2"/><path d="M-65 20 Q-30 8 5 8 Q20 8 35 4" fill="none" stroke="#5a4a2a" stroke-width="7" stroke-linecap="round"/><path d="M5 8 L28 -10 Q36 -16 44 -14" fill="none" stroke="#c89a5a" stroke-width="7" stroke-linecap="round"/><path d="M-20 4 L10 -4 L42 -6 L60 4 L58 20 L35 24 L-15 20 Z" fill="#c89a5a" stroke="#aa7c3c" stroke-width="2"/><ellipse cx="20" cy="-8" rx="20" ry="8" fill="#c89a5a" stroke="#aa7c3c" stroke-width="1.5"/><path d="M4 -6 Q18 -14 34 -8 Q24 -4 6 -4 Z" fill="rgba(255,255,255,0.15)"/><ellipse cx="62" cy="0" rx="12" ry="10" fill="#2a2010" stroke="#8a7a5a" stroke-width="2"/><ellipse cx="62" cy="0" rx="7" ry="6" fill="rgba(255,220,80,0.6)"/><path d="M-12 -6 Q4 -18 28 -12 Q32 -8 28 -4 Q8 -14 -10 -4 Z" fill="#1a1206" stroke="#3a2a12"/><path d="M-24 6 L-12 -6 L-9 -3 L-20 8 Z" fill="#a07232"/><rect x="-26" y="4" width="8" height="5" rx="1" fill="#cc1100" opacity="0.8"/><rect x="-5" y="8" width="28" height="18" rx="3" fill="#2a2010" stroke="#4a3a1a" stroke-width="1.5"/><path d="M-2 22 L-22 28 Q-45 32 -70 36" fill="none" stroke="#aaa" stroke-width="7" stroke-linecap="round"/><line x1="34" y1="-18" x2="56" y2="8" stroke="#8a7a5a" stroke-width="5" stroke-linecap="round"/><line x1="42" y1="-18" x2="64" y2="8" stroke="#aaa" stroke-width="3.5" stroke-linecap="round"/><path d="M28 -22 Q35 -32 44 -18" fill="none" stroke="#8a7a5a" stroke-width="4" stroke-linecap="round"/></g><text x="200" y="264" font-family="Georgia,serif" font-size="13" font-style="italic" fill="#3e2723" text-anchor="middle">Notre Sélection</text><line x1="130" y1="270" x2="270" y2="270" stroke="#c89a5a" stroke-width="0.8" opacity="0.6"/><rect x="16" y="278" width="120" height="128" rx="4" fill="#fff9f0" stroke="#c89a5a" stroke-width="0.8" opacity="0.6"/><rect x="16" y="278" width="120" height="70" rx="4" fill="#c89a5a" opacity="0.1"/><g transform="translate(76, 313) scale(0.32)"><ellipse cx="0" cy="54" rx="120" ry="7" fill="rgba(0,0,0,0.2)"/><circle cx="-76" cy="36" r="34" fill="#1a1206" stroke="#3a2a12" stroke-width="2.5"/><circle cx="-76" cy="36" r="24" fill="none" stroke="#4a3a1a" stroke-width="2"/><circle cx="-76" cy="36" r="8" fill="#8a7a5a"/><line x1="-76" y1="2" x2="-76" y2="70" stroke="#5a4a2a" stroke-width="2"/><line x1="-42" y1="36" x2="-110" y2="36" stroke="#5a4a2a" stroke-width="2"/><line x1="-52" y1="12" x2="-100" y2="60" stroke="#5a4a2a" stroke-width="2"/><line x1="-100" y1="12" x2="-52" y2="60" stroke="#5a4a2a" stroke-width="2"/><circle cx="72" cy="36" r="32" fill="#1a1206" stroke="#3a2a12" stroke-width="2.5"/><circle cx="72" cy="36" r="22" fill="none" stroke="#4a3a1a" stroke-width="2"/><circle cx="72" cy="36" r="8" fill="#8a7a5a"/><line x1="72" y1="4" x2="72" y2="68" stroke="#5a4a2a" stroke-width="2"/><line x1="40" y1="36" x2="104" y2="36" stroke="#5a4a2a" stroke-width="2"/><path d="M-65 20 Q-30 8 5 8 Q20 8 35 4" fill="none" stroke="#5a4a2a" stroke-width="7" stroke-linecap="round"/><path d="M5 8 L28 -10 Q36 -16 44 -14" fill="none" stroke="#c89a5a" stroke-width="7" stroke-linecap="round"/><path d="M-20 4 L10 -4 L42 -6 L60 4 L58 20 L35 24 L-15 20 Z" fill="#c89a5a" stroke="#aa7c3c" stroke-width="2"/><ellipse cx="20" cy="-8" rx="20" ry="8" fill="#c89a5a" stroke="#aa7c3c" stroke-width="1.5"/><path d="M4 -6 Q18 -14 34 -8 Q24 -4 6 -4 Z" fill="rgba(255,255,255,0.15)"/><ellipse cx="62" cy="0" rx="12" ry="10" fill="#2a2010" stroke="#8a7a5a" stroke-width="2"/><ellipse cx="62" cy="0" rx="7" ry="6" fill="rgba(255,220,80,0.6)"/><path d="M-12 -6 Q4 -18 28 -12 Q32 -8 28 -4 Q8 -14 -10 -4 Z" fill="#1a1206" stroke="#3a2a12"/><path d="M-24 6 L-12 -6 L-9 -3 L-20 8 Z" fill="#a07232"/><rect x="-26" y="4" width="8" height="5" rx="1" fill="#cc1100" opacity="0.8"/><rect x="-5" y="8" width="28" height="18" rx="3" fill="#2a2010" stroke="#4a3a1a" stroke-width="1.5"/><path d="M-2 22 L-22 28 Q-45 32 -70 36" fill="none" stroke="#aaa" stroke-width="7" stroke-linecap="round"/><line x1="34" y1="-18" x2="56" y2="8" stroke="#8a7a5a" stroke-width="5" stroke-linecap="round"/><line x1="42" y1="-18" x2="64" y2="8" stroke="#aaa" stroke-width="3.5" stroke-linecap="round"/><path d="M28 -22 Q35 -32 44 -18" fill="none" stroke="#8a7a5a" stroke-width="4" stroke-linecap="round"/></g><line x1="26" y1="351" x2="126" y2="351" stroke="#c89a5a" stroke-width="0.5" opacity="0.4"/><text x="76" y="366" font-family="Georgia,serif" font-size="8" font-style="italic" fill="#3e2723" text-anchor="middle">BSA Gold Star</text><text x="76" y="378" font-family="Georgia,serif" font-size="7" fill="#8d6e63" text-anchor="middle">Année 1956</text><text x="76" y="393" font-family="Georgia,serif" font-size="9" font-weight="bold" fill="#c89a5a" text-anchor="middle">120 000 DH</text><rect x="145" y="278" width="120" height="128" rx="4" fill="#fff9f0" stroke="#c89a5a" stroke-width="0.8" opacity="0.6"/><rect x="145" y="278" width="120" height="70" rx="4" fill="#c89a5a" opacity="0.1"/><g transform="translate(205, 313) scale(0.32)"><ellipse cx="0" cy="54" rx="120" ry="7" fill="rgba(0,0,0,0.2)"/><circle cx="-76" cy="36" r="34" fill="#1a1206" stroke="#3a2a12" stroke-width="2.5"/><circle cx="-76" cy="36" r="24" fill="none" stroke="#4a3a1a" stroke-width="2"/><circle cx="-76" cy="36" r="8" fill="#8a7a5a"/><line x1="-76" y1="2" x2="-76" y2="70" stroke="#5a4a2a" stroke-width="2"/><line x1="-42" y1="36" x2="-110" y2="36" stroke="#5a4a2a" stroke-width="2"/><line x1="-52" y1="12" x2="-100" y2="60" stroke="#5a4a2a" stroke-width="2"/><line x1="-100" y1="12" x2="-52" y2="60" stroke="#5a4a2a" stroke-width="2"/><circle cx="72" cy="36" r="32" fill="#1a1206" stroke="#3a2a12" stroke-width="2.5"/><circle cx="72" cy="36" r="22" fill="none" stroke="#4a3a1a" stroke-width="2"/><circle cx="72" cy="36" r="8" fill="#8a7a5a"/><line x1="72" y1="4" x2="72" y2="68" stroke="#5a4a2a" stroke-width="2"/><line x1="40" y1="36" x2="104" y2="36" stroke="#5a4a2a" stroke-width="2"/><path d="M-65 20 Q-30 8 5 8 Q20 8 35 4" fill="none" stroke="#5a4a2a" stroke-width="7" stroke-linecap="round"/><path d="M5 8 L28 -10 Q36 -16 44 -14" fill="none" stroke="#c89a5a" stroke-width="7" stroke-linecap="round"/><path d="M-20 4 L10 -4 L42 -6 L60 4 L58 20 L35 24 L-15 20 Z" fill="#c89a5a" stroke="#aa7c3c" stroke-width="2"/><ellipse cx="20" cy="-8" rx="20" ry="8" fill="#c89a5a" stroke="#aa7c3c" stroke-width="1.5"/><path d="M4 -6 Q18 -14 34 -8 Q24 -4 6 -4 Z" fill="rgba(255,255,255,0.15)"/><ellipse cx="62" cy="0" rx="12" ry="10" fill="#2a2010" stroke="#8a7a5a" stroke-width="2"/><ellipse cx="62" cy="0" rx="7" ry="6" fill="rgba(255,220,80,0.6)"/><path d="M-12 -6 Q4 -18 28 -12 Q32 -8 28 -4 Q8 -14 -10 -4 Z" fill="#1a1206" stroke="#3a2a12"/><path d="M-24 6 L-12 -6 L-9 -3 L-20 8 Z" fill="#a07232"/><rect x="-26" y="4" width="8" height="5" rx="1" fill="#cc1100" opacity="0.8"/><rect x="-5" y="8" width="28" height="18" rx="3" fill="#2a2010" stroke="#4a3a1a" stroke-width="1.5"/><path d="M-2 22 L-22 28 Q-45 32 -70 36" fill="none" stroke="#aaa" stroke-width="7" stroke-linecap="round"/><line x1="34" y1="-18" x2="56" y2="8" stroke="#8a7a5a" stroke-width="5" stroke-linecap="round"/><line x1="42" y1="-18" x2="64" y2="8" stroke="#aaa" stroke-width="3.5" stroke-linecap="round"/><path d="M28 -22 Q35 -32 44 -18" fill="none" stroke="#8a7a5a" stroke-width="4" stroke-linecap="round"/></g><line x1="155" y1="351" x2="255" y2="351" stroke="#c89a5a" stroke-width="0.5" opacity="0.4"/><text x="205" y="366" font-family="Georgia,serif" font-size="8" font-style="italic" fill="#3e2723" text-anchor="middle">Triumph Bonneville</text><text x="205" y="378" font-family="Georgia,serif" font-size="7" fill="#8d6e63" text-anchor="middle">Année 1969</text><text x="205" y="393" font-family="Georgia,serif" font-size="9" font-weight="bold" fill="#c89a5a" text-anchor="middle">95 000 DH</text><rect x="274" y="278" width="120" height="128" rx="4" fill="#fff9f0" stroke="#c89a5a" stroke-width="0.8" opacity="0.6"/><rect x="274" y="278" width="120" height="70" rx="4" fill="#c89a5a" opacity="0.1"/><g transform="translate(334, 313) scale(0.32)"><ellipse cx="0" cy="54" rx="120" ry="7" fill="rgba(0,0,0,0.2)"/><circle cx="-76" cy="36" r="34" fill="#1a1206" stroke="#3a2a12" stroke-width="2.5"/><circle cx="-76" cy="36" r="24" fill="none" stroke="#4a3a1a" stroke-width="2"/><circle cx="-76" cy="36" r="8" fill="#8a7a5a"/><line x1="-76" y1="2" x2="-76" y2="70" stroke="#5a4a2a" stroke-width="2"/><line x1="-42" y1="36" x2="-110" y2="36" stroke="#5a4a2a" stroke-width="2"/><line x1="-52" y1="12" x2="-100" y2="60" stroke="#5a4a2a" stroke-width="2"/><line x1="-100" y1="12" x2="-52" y2="60" stroke="#5a4a2a" stroke-width="2"/><circle cx="72" cy="36" r="32" fill="#1a1206" stroke="#3a2a12" stroke-width="2.5"/><circle cx="72" cy="36" r="22" fill="none" stroke="#4a3a1a" stroke-width="2"/><circle cx="72" cy="36" r="8" fill="#8a7a5a"/><line x1="72" y1="4" x2="72" y2="68" stroke="#5a4a2a" stroke-width="2"/><line x1="40" y1="36" x2="104" y2="36" stroke="#5a4a2a" stroke-width="2"/><path d="M-65 20 Q-30 8 5 8 Q20 8 35 4" fill="none" stroke="#5a4a2a" stroke-width="7" stroke-linecap="round"/><path d="M5 8 L28 -10 Q36 -16 44 -14" fill="none" stroke="#c89a5a" stroke-width="7" stroke-linecap="round"/><path d="M-20 4 L10 -4 L42 -6 L60 4 L58 20 L35 24 L-15 20 Z" fill="#c89a5a" stroke="#aa7c3c" stroke-width="2"/><ellipse cx="20" cy="-8" rx="20" ry="8" fill="#c89a5a" stroke="#aa7c3c" stroke-width="1.5"/><path d="M4 -6 Q18 -14 34 -8 Q24 -4 6 -4 Z" fill="rgba(255,255,255,0.15)"/><ellipse cx="62" cy="0" rx="12" ry="10" fill="#2a2010" stroke="#8a7a5a" stroke-width="2"/><ellipse cx="62" cy="0" rx="7" ry="6" fill="rgba(255,220,80,0.6)"/><path d="M-12 -6 Q4 -18 28 -12 Q32 -8 28 -4 Q8 -14 -10 -4 Z" fill="#1a1206" stroke="#3a2a12"/><path d="M-24 6 L-12 -6 L-9 -3 L-20 8 Z" fill="#a07232"/><rect x="-26" y="4" width="8" height="5" rx="1" fill="#cc1100" opacity="0.8"/><rect x="-5" y="8" width="28" height="18" rx="3" fill="#2a2010" stroke="#4a3a1a" stroke-width="1.5"/><path d="M-2 22 L-22 28 Q-45 32 -70 36" fill="none" stroke="#aaa" stroke-width="7" stroke-linecap="round"/><line x1="34" y1="-18" x2="56" y2="8" stroke="#8a7a5a" stroke-width="5" stroke-linecap="round"/><line x1="42" y1="-18" x2="64" y2="8" stroke="#aaa" stroke-width="3.5" stroke-linecap="round"/><path d="M28 -22 Q35 -32 44 -18" fill="none" stroke="#8a7a5a" stroke-width="4" stroke-linecap="round"/></g><line x1="284" y1="351" x2="384" y2="351" stroke="#c89a5a" stroke-width="0.5" opacity="0.4"/><text x="334" y="366" font-family="Georgia,serif" font-size="8" font-style="italic" fill="#3e2723" text-anchor="middle">Norton Commando</text><text x="334" y="378" font-family="Georgia,serif" font-size="7" fill="#8d6e63" text-anchor="middle">Année 1974</text><text x="334" y="393" font-family="Georgia,serif" font-size="9" font-weight="bold" fill="#c89a5a" text-anchor="middle">78 500 DH</text><rect y="418" width="400" height="44" fill="#c89a5a" opacity="0.1"/><text x="200" y="443" font-family="Georgia,serif" font-size="10" font-style="italic" fill="#3e2723" text-anchor="middle">"L'élégance du passé, la puissance du présent"</text><rect y="462" width="400" height="98" fill="#c89a5a"/><text x="200" y="484" font-family="Georgia,serif" font-size="11" font-weight="bold" fill="white" text-anchor="middle">MOTO STORE — CLASSIQUES &amp; VINTAGE</text><text x="200" y="502" font-family="Georgia,serif" font-size="7" fill="rgba(255,255,255,0.65)" text-anchor="middle">Restauration · Expertise · Vente · Pièces d'origine</text><text x="200" y="526" font-family="Georgia,serif" font-size="7" fill="rgba(255,255,255,0.5)" text-anchor="middle">© 2025 — Vintage Garage</text></svg>